<svg width="33" height="32" viewBox="0 0 33 32" fill="none" xmlns="http://www.w3.org/2000/svg">
<path d="M28.4558 22.8601C28.0122 23.8849 27.4871 24.8282 26.8787 25.6955C26.0494 26.8779 25.3705 27.6963 24.8472 28.1508C24.036 28.8967 23.1669 29.2788 22.2362 29.3005C21.5681 29.3005 20.7624 29.1104 19.8245 28.7247C18.8835 28.3409 18.0187 28.1508 17.228 28.1508C16.3987 28.1508 15.5093 28.3409 14.558 28.7247C13.6053 29.1104 12.8377 29.3114 12.2509 29.3313C11.3584 29.3693 10.4689 28.9764 9.58094 28.1508C9.01421 27.6565 8.30535 26.8091 7.45616 25.6086C6.54504 24.3267 5.79598 22.8401 5.20915 21.1454C4.58068 19.3148 4.26562 17.5422 4.26562 15.8261C4.26562 13.8603 4.6904 12.1648 5.54122 10.744C6.20989 9.6027 7.09946 8.70245 8.21282 8.04156C9.32619 7.38068 10.5292 7.0439 11.8247 7.02235C12.5336 7.02235 13.4631 7.24162 14.6183 7.67256C15.7703 8.10494 16.5099 8.32421 16.8342 8.32421C17.0766 8.32421 17.8983 8.06782 19.2912 7.55667C20.6085 7.08265 21.7202 6.88637 22.631 6.96369C25.0989 7.16286 26.953 8.13572 28.186 9.88842C25.9788 11.2258 24.887 13.0989 24.9087 15.5018C24.9287 17.3734 25.6077 18.931 26.9421 20.1676C27.5469 20.7416 28.2222 21.1852 28.9736 21.5003C28.8107 21.9728 28.6387 22.4255 28.4558 22.8601ZM22.7957 0.587322C22.7957 2.05432 22.2598 3.42406 21.1915 4.69187C19.9023 6.19905 18.343 7.06997 16.652 6.93254C16.6305 6.75655 16.618 6.57132 16.618 6.37668C16.618 4.96836 17.2311 3.46118 18.3198 2.22885C18.8634 1.6049 19.5547 1.0861 20.393 0.67224C21.2295 0.264556 22.0208 0.0390971 22.7649 0.000488281C22.7867 0.196603 22.7957 0.392731 22.7957 0.587303V0.587322Z" fill="#B26767"/>
</svg>
