<svg width="22" height="22" viewBox="0 0 22 22" fill="none" xmlns="http://www.w3.org/2000/svg">
<g clip-path="url(#clip0_237_32)">
<path d="M20.9642 7.25668L19.3203 5.61273C18.93 5.2225 18.299 5.2225 17.9129 5.61273L7.97038 15.5553L3.34574 10.9265C2.95551 10.5363 2.3245 10.5363 1.93842 10.9265L0.290322 12.5746C-0.0999073 12.9648 -0.0999073 13.5958 0.290322 13.9861L7.26464 20.9645C7.65487 21.3548 8.28588 21.3548 8.67196 20.9645L20.96 8.66815C21.3503 8.27376 21.3503 7.64275 20.9642 7.25668ZM7.50127 11.6571C7.75866 11.9187 8.1821 11.9187 8.43948 11.6571L17.0744 3.01396C17.3317 2.75243 17.3317 2.33314 17.0744 2.07575L15.1979 0.195176C14.9405 -0.0663608 14.5171 -0.0663608 14.2597 0.195176L7.97038 6.48452L5.67051 4.1805C5.41313 3.91897 4.98969 3.91897 4.7323 4.1805L2.85172 6.06108C2.59434 6.32262 2.59434 6.7419 2.85172 6.99929L7.50127 11.6571Z" fill="#2FCDFF"/>
</g>
<defs>
<clipPath id="clip0_237_32">
<rect width="21.2551" height="21.2551" fill="white"/>
</clipPath>
</defs>
</svg>
