<svg width="33" height="32" viewBox="0 0 33 32" fill="none" xmlns="http://www.w3.org/2000/svg">
<g clip-path="url(#clip0_245_743)">
<path d="M32.0213 16.3683C32.0213 15.2807 31.9332 14.1872 31.745 13.1172H16.6533V19.2785H25.2956C24.937 21.2656 23.7847 23.0235 22.0974 24.1405V28.1383H27.2534C30.2811 25.3516 32.0213 21.2362 32.0213 16.3683Z" fill="#4285F4"/>
<path d="M16.6535 32.0009C20.9687 32.0009 24.6079 30.5841 27.2594 28.1384L22.1034 24.1406C20.6689 25.1165 18.817 25.6691 16.6593 25.6691C12.4852 25.6691 8.94595 22.853 7.67606 19.0669H2.35547V23.1882C5.07162 28.5911 10.6039 32.0009 16.6535 32.0009Z" fill="#34A853"/>
<path d="M7.67004 19.0671C6.99982 17.08 6.99982 14.9282 7.67004 12.9411V8.81982H2.35532C0.0859861 13.3409 0.0859861 18.6673 2.35532 23.1884L7.67004 19.0671Z" fill="#FBBC04"/>
<path d="M16.6535 6.33288C18.9346 6.29761 21.1392 7.15596 22.7913 8.73156L27.3593 4.16349C24.4668 1.44734 20.6277 -0.0459547 16.6535 0.00107822C10.6039 0.00107822 5.07162 3.41096 2.35547 8.81974L7.67019 12.941C8.93419 9.14897 12.4793 6.33288 16.6535 6.33288Z" fill="#EA4335"/>
</g>
<defs>
<clipPath id="clip0_245_743">
<rect width="32" height="32" fill="white" transform="translate(0.333008)"/>
</clipPath>
</defs>
</svg>
