<svg width="22" height="18" viewBox="0 0 22 18" fill="none" xmlns="http://www.w3.org/2000/svg">
<path d="M4.72749 17.9974H0.348857V6.54609H4.72749V17.9974ZM2.53581 4.98402C1.13567 4.98402 0 4.04219 0 2.9051C1.00216e-08 2.35891 0.267165 1.8351 0.742723 1.44889C1.21828 1.06267 1.86327 0.845703 2.53581 0.845703C3.20835 0.845703 3.85335 1.06267 4.32891 1.44889C4.80446 1.8351 5.07163 2.35891 5.07163 2.9051C5.07163 4.04219 3.93549 4.98402 2.53581 4.98402ZM21.1153 17.9974H16.7461V12.423C16.7461 11.0944 16.7131 9.39073 14.4696 9.39073C12.193 9.39073 11.8442 10.8341 11.8442 12.3273V17.9974H7.47026V6.54609H11.6697V8.10815H11.731C12.3156 7.20843 13.7436 6.25894 15.8739 6.25894C20.3054 6.25894 21.12 8.62884 21.12 11.707V17.9974H21.1153Z" fill="black"/>
</svg>
