<svg width="45" height="43" viewBox="0 0 45 43" fill="none" xmlns="http://www.w3.org/2000/svg">
<path d="M20.184 23.8383L16.8734 20.6611C16.7014 20.4954 16.4919 20.4067 16.2449 20.3948C15.9979 20.383 15.7724 20.4753 15.5684 20.6717C15.3718 20.8611 15.2735 21.0705 15.2735 21.3001C15.2735 21.5296 15.3718 21.7391 15.5684 21.9284L19.1425 25.3683C19.4399 25.6559 19.7871 25.7997 20.184 25.7997C20.5809 25.7997 20.928 25.6559 21.2254 25.3683L28.6704 18.201C28.8498 18.0282 28.9438 17.8247 28.9524 17.5904C28.9598 17.3561 28.8658 17.1407 28.6704 16.9443C28.4664 16.749 28.2471 16.6496 28.0124 16.6461C27.7777 16.6425 27.5583 16.7384 27.3543 16.9336L20.184 23.8383ZM15.9813 36.5915L13.5556 32.6866L8.98423 31.7583C8.6168 31.6932 8.32433 31.5039 8.10683 31.1903C7.88932 30.8767 7.79961 30.5442 7.83771 30.1927L8.27272 25.6559L5.17233 22.2479C4.91181 21.9911 4.78156 21.6752 4.78156 21.3001C4.78156 20.925 4.91181 20.6084 5.17233 20.3505L8.27272 16.9443L7.83771 12.4074C7.80084 12.0548 7.89055 11.7223 8.10683 11.4099C8.3231 11.0975 8.61496 10.9082 8.98238 10.8419L13.5537 9.91358L15.9795 6.00862C16.1785 5.69149 16.4458 5.47258 16.7813 5.35188C17.1168 5.23 17.4639 5.24597 17.8227 5.39981L22.1194 7.14816L26.4142 5.39981C26.7743 5.24597 27.1221 5.22941 27.4575 5.35011C27.793 5.47199 28.0603 5.6909 28.2594 6.00685L30.6833 9.91181L35.2546 10.8419C35.622 10.907 35.9145 11.0963 36.132 11.4099C36.3495 11.7235 36.4392 12.056 36.4011 12.4074L35.9661 16.9443L39.0665 20.3522C39.327 20.609 39.4573 20.925 39.4573 21.3001C39.4573 21.6752 39.327 21.9917 39.0665 22.2497L35.9661 25.6559L36.4011 30.1927C36.438 30.5454 36.3483 30.8779 36.132 31.1903C35.9157 31.5027 35.6239 31.692 35.2564 31.7583L30.6851 32.6866L28.2594 36.5915C28.0603 36.9087 27.793 37.1276 27.4575 37.2483C27.1221 37.3702 26.7749 37.3542 26.4161 37.2004L22.1194 35.452L17.8246 37.2004C17.4645 37.3542 17.1168 37.3708 16.7813 37.2501C16.4458 37.1282 16.1785 36.9093 15.9795 36.5933" fill="#2FCDFF"/>
</svg>
