<svg width="28" height="28" viewBox="0 0 28 28" fill="none" xmlns="http://www.w3.org/2000/svg">
<path d="M7.34825 19.3411L5.42325 21.2573C5.34124 21.3387 5.27614 21.4354 5.23172 21.5421C5.1873 21.6487 5.16442 21.7631 5.16442 21.8786C5.16442 21.9941 5.1873 22.1085 5.23172 22.2151C5.27614 22.3217 5.34124 22.4185 5.42325 22.4998C5.50459 22.5818 5.60137 22.6469 5.70799 22.6914C5.81462 22.7358 5.92899 22.7587 6.0445 22.7587C6.16001 22.7587 6.27438 22.7358 6.381 22.6914C6.48763 22.6469 6.5844 22.5818 6.66575 22.4998L9.34325 19.8136L12.3707 16.7861L22.4157 6.74983C22.5805 6.58506 22.6731 6.36159 22.6731 6.12858C22.6731 5.89557 22.5805 5.6721 22.4157 5.50733C22.251 5.34256 22.0275 5.25 21.7945 5.25C21.5615 5.25 21.338 5.34256 21.1732 5.50733L18.9332 7.75608C16.2597 6.42157 13.1665 6.19984 10.3299 7.13936C7.49334 8.07887 5.14409 10.1032 3.79575 12.7698C3.60134 13.152 3.5 13.5748 3.5 14.0036C3.5 14.4324 3.60134 14.8551 3.79575 15.2373C4.62967 16.873 5.84887 18.2814 7.34825 19.3411ZM11.7232 14.0036C11.7232 13.7156 11.7801 13.4304 11.8906 13.1644C12.0011 12.8985 12.163 12.6569 12.367 12.4537C12.5711 12.2504 12.8133 12.0895 13.0797 11.9801C13.3461 11.8707 13.6315 11.8149 13.9195 11.8161C14.1918 11.8163 14.4617 11.8667 14.7157 11.9648L11.8807 14.7998C11.7826 14.5458 11.7322 14.2759 11.732 14.0036H11.7232ZM5.3445 13.5661C6.15102 11.9856 7.37872 10.6589 8.89198 9.73239C10.4052 8.8059 12.1451 8.31575 13.9195 8.31608C15.19 8.3193 16.4476 8.572 17.6207 9.05983L16.0107 10.6786C15.3862 10.2795 14.6607 10.0671 13.9195 10.0661C12.8759 10.0684 11.8757 10.484 11.1378 11.2219C10.3999 11.9598 9.98431 12.96 9.982 14.0036C9.98297 14.7448 10.1955 15.4702 10.5945 16.0948L8.617 18.0636C7.23437 17.1583 6.10991 15.9103 5.35325 14.4411C5.27645 14.3081 5.23602 14.1572 5.23602 14.0036C5.23602 13.85 5.27645 13.6991 5.35325 13.5661H5.3445ZM22.6082 10.6173C22.5725 10.5881 22.5344 10.5618 22.4945 10.5386L22.3457 10.4423C22.2958 10.4197 22.2427 10.405 22.1882 10.3986C22.1332 10.3894 22.077 10.3894 22.022 10.3986H21.8645C21.8095 10.3894 21.7533 10.3894 21.6982 10.3986C21.6432 10.4195 21.5905 10.4459 21.5407 10.4773C21.5009 10.4974 21.4629 10.5209 21.427 10.5473L12.0645 19.8748C12.0645 19.8748 12.0645 19.9361 12.0032 19.9623C11.9614 20.0099 11.926 20.0629 11.8982 20.1198C11.8729 20.1725 11.8552 20.2284 11.8457 20.2861C11.8457 20.2861 11.8457 20.3561 11.8457 20.3911C11.8449 20.4057 11.8449 20.4203 11.8457 20.4348C11.8368 20.4987 11.8368 20.5635 11.8457 20.6273C11.8408 20.6768 11.8408 20.7266 11.8457 20.7761C11.8655 20.8273 11.8889 20.877 11.9157 20.9248L12.012 21.0648C12.012 21.0648 12.012 21.0648 12.012 21.1086C12.012 21.1523 12.0732 21.1523 12.0995 21.1786L12.2482 21.2748C12.3049 21.2975 12.3635 21.3151 12.4232 21.3273C12.4232 21.3273 12.4845 21.3273 12.5282 21.3273H12.6245C13.0538 21.389 13.4861 21.4269 13.9195 21.4411C16.0146 21.4396 18.0686 20.8596 19.855 19.7649C21.6414 18.6702 23.0908 17.1034 24.0432 15.2373C24.2377 14.8551 24.339 14.4324 24.339 14.0036C24.339 13.5748 24.2377 13.152 24.0432 12.7698C23.6633 12.0136 23.2027 11.3008 22.6695 10.6436L22.6082 10.6173ZM22.4857 14.4411C21.7494 15.8876 20.657 17.1228 19.3115 18.0306C17.9659 18.9383 16.4115 19.4887 14.7945 19.6298L21.8907 12.5423C22.1197 12.8681 22.3245 13.2103 22.5032 13.5661C22.5774 13.7006 22.6148 13.8523 22.6118 14.0059C22.6087 14.1595 22.5652 14.3096 22.4857 14.4411Z" fill="black"/>
<path d="M7.34825 19.3411L5.42325 21.2573C5.34124 21.3387 5.27614 21.4354 5.23172 21.5421C5.1873 21.6487 5.16442 21.7631 5.16442 21.8786C5.16442 21.9941 5.1873 22.1085 5.23172 22.2151C5.27614 22.3217 5.34124 22.4185 5.42325 22.4998C5.50459 22.5818 5.60137 22.6469 5.70799 22.6914C5.81462 22.7358 5.92899 22.7587 6.0445 22.7587C6.16001 22.7587 6.27438 22.7358 6.381 22.6914C6.48763 22.6469 6.5844 22.5818 6.66575 22.4998L9.34325 19.8136L12.3707 16.7861L22.4157 6.74983C22.5805 6.58506 22.6731 6.36159 22.6731 6.12858C22.6731 5.89557 22.5805 5.6721 22.4157 5.50733C22.251 5.34256 22.0275 5.25 21.7945 5.25C21.5615 5.25 21.338 5.34256 21.1732 5.50733L18.9332 7.75608C16.2597 6.42157 13.1665 6.19984 10.3299 7.13936C7.49334 8.07887 5.14409 10.1032 3.79575 12.7698C3.60134 13.152 3.5 13.5748 3.5 14.0036C3.5 14.4324 3.60134 14.8551 3.79575 15.2373C4.62967 16.873 5.84887 18.2814 7.34825 19.3411ZM11.7232 14.0036C11.7232 13.7156 11.7801 13.4304 11.8906 13.1644C12.0011 12.8985 12.163 12.6569 12.367 12.4537C12.5711 12.2504 12.8133 12.0895 13.0797 11.9801C13.3461 11.8707 13.6315 11.8149 13.9195 11.8161C14.1918 11.8163 14.4617 11.8667 14.7157 11.9648L11.8807 14.7998C11.7826 14.5458 11.7322 14.2759 11.732 14.0036H11.7232ZM5.3445 13.5661C6.15102 11.9856 7.37872 10.6589 8.89198 9.73239C10.4052 8.8059 12.1451 8.31575 13.9195 8.31608C15.19 8.3193 16.4476 8.572 17.6207 9.05983L16.0107 10.6786C15.3862 10.2795 14.6607 10.0671 13.9195 10.0661C12.8759 10.0684 11.8757 10.484 11.1378 11.2219C10.3999 11.9598 9.98431 12.96 9.982 14.0036C9.98297 14.7448 10.1955 15.4702 10.5945 16.0948L8.617 18.0636C7.23437 17.1583 6.10991 15.9103 5.35325 14.4411C5.27645 14.3081 5.23602 14.1572 5.23602 14.0036C5.23602 13.85 5.27645 13.6991 5.35325 13.5661H5.3445ZM22.6082 10.6173C22.5725 10.5881 22.5344 10.5618 22.4945 10.5386L22.3457 10.4423C22.2958 10.4197 22.2427 10.405 22.1882 10.3986C22.1332 10.3894 22.077 10.3894 22.022 10.3986H21.8645C21.8095 10.3894 21.7533 10.3894 21.6982 10.3986C21.6432 10.4195 21.5905 10.4459 21.5407 10.4773C21.5009 10.4974 21.4629 10.5209 21.427 10.5473L12.0645 19.8748C12.0645 19.8748 12.0645 19.9361 12.0032 19.9623C11.9614 20.0099 11.926 20.0629 11.8982 20.1198C11.8729 20.1725 11.8552 20.2284 11.8457 20.2861C11.8457 20.2861 11.8457 20.3561 11.8457 20.3911C11.8449 20.4057 11.8449 20.4203 11.8457 20.4348C11.8368 20.4987 11.8368 20.5635 11.8457 20.6273C11.8408 20.6768 11.8408 20.7266 11.8457 20.7761C11.8655 20.8273 11.8889 20.877 11.9157 20.9248L12.012 21.0648C12.012 21.0648 12.012 21.0648 12.012 21.1086C12.012 21.1523 12.0732 21.1523 12.0995 21.1786L12.2482 21.2748C12.3049 21.2975 12.3635 21.3151 12.4232 21.3273C12.4232 21.3273 12.4845 21.3273 12.5282 21.3273H12.6245C13.0538 21.389 13.4861 21.4269 13.9195 21.4411C16.0146 21.4396 18.0686 20.8596 19.855 19.7649C21.6414 18.6702 23.0908 17.1034 24.0432 15.2373C24.2377 14.8551 24.339 14.4324 24.339 14.0036C24.339 13.5748 24.2377 13.152 24.0432 12.7698C23.6633 12.0136 23.2027 11.3008 22.6695 10.6436L22.6082 10.6173ZM22.4857 14.4411C21.7494 15.8876 20.657 17.1228 19.3115 18.0306C17.9659 18.9383 16.4115 19.4887 14.7945 19.6298L21.8907 12.5423C22.1197 12.8681 22.3245 13.2103 22.5032 13.5661C22.5774 13.7006 22.6148 13.8523 22.6118 14.0059C22.6087 14.1595 22.5652 14.3096 22.4857 14.4411Z" fill="black" fill-opacity="0.2"/>
</svg>
